<svg viewBox="0 0 1200 620" xmlns="http://www.w3.org/2000/svg">
  <rect width="1200" height="620" fill="#0a0e14"/>
  <text x="600" y="50" font-family="Consolas,monospace" font-size="13.5" fill="#8b949e" text-anchor="middle" letter-spacing="2">SUSPICIOUS DNS VS HIGHER-CONFIDENCE INCIDENT CONTEXT</text>
  <line x1="410" y1="66" x2="790" y2="66" stroke="#21262d" stroke-width="1"/>

  <g>
    <rect x="80" y="100" width="480" height="360" rx="10" fill="#1a1608" stroke="#d29922" stroke-width="1.8"/>
    <text x="320" y="138" font-family="Consolas,monospace" font-size="13" fill="#d29922" text-anchor="middle" font-weight="700" letter-spacing="0.5">SUSPICIOUS / REQUIRES VALIDATION</text>
    <line x1="110" y1="156" x2="530" y2="156" stroke="#3a2f10"/>
    <g font-family="Consolas,monospace" font-size="14.5" fill="#e6edf3">
      <circle cx="130" cy="192" r="4" fill="#d29922"/><text x="148" y="197">Mobile Device</text>
      <circle cx="130" cy="232" r="4" fill="#d29922"/><text x="148" y="237">Watched Domain</text>
      <circle cx="130" cy="272" r="4" fill="#d29922"/><text x="148" y="277">DNS Query</text>
      <circle cx="130" cy="312" r="4" fill="#d29922"/><text x="148" y="317">Internal Resolver</text>
      <circle cx="130" cy="352" r="4" fill="#d29922"/><text x="148" y="357" font-size="13.5">No endpoint context</text>
    </g>
  </g>

  <g>
    <rect x="640" y="100" width="480" height="360" rx="10" fill="#1a1214" stroke="#f85149" stroke-width="1.8"/>
    <text x="880" y="138" font-family="Consolas,monospace" font-size="13" fill="#f85149" text-anchor="middle" font-weight="700" letter-spacing="0.5">HIGHER CONFIDENCE INCIDENT</text>
    <line x1="670" y1="156" x2="1090" y2="156" stroke="#3a1f1f"/>
    <g font-family="Consolas,monospace" font-size="14" fill="#e6edf3">
      <circle cx="690" cy="192" r="4" fill="#f85149"/><text x="708" y="197">Known malicious process</text>
      <circle cx="690" cy="232" r="4" fill="#f85149"/><text x="708" y="237">Repeated C2 behavior</text>
      <circle cx="690" cy="272" r="4" fill="#f85149"/><text x="708" y="277">Direct external session</text>
      <circle cx="690" cy="312" r="4" fill="#f85149"/><text x="708" y="317">Persistence</text>
      <circle cx="690" cy="352" r="4" fill="#f85149"/><text x="708" y="357" font-size="13">Multiple supporting indicators</text>
    </g>
  </g>

  <rect x="330" y="500" width="540" height="46" rx="8" fill="#0d1421" stroke="#58a6ff" stroke-width="1.8"/>
  <text x="600" y="528" font-family="Consolas,monospace" font-size="14" fill="#58a6ff" text-anchor="middle" font-weight="700">SAME INITIAL SIGNAL · DIFFERENT EVIDENCE DEPTH</text>

  <text x="600" y="580" font-family="Segoe UI,Arial,sans-serif" font-size="12.5" fill="#8b949e" text-anchor="middle">contexto adicional altera a confiança — não o fato de que o alerta ocorreu</text>
</svg>
