<svg viewBox="0 0 900 900" xmlns="http://www.w3.org/2000/svg">
  <defs>
    <marker id="arrow02f" markerWidth="10" markerHeight="10" refX="5" refY="5" orient="auto">
      <path d="M0,0 L10,5 L0,10 Z" fill="#4b5563"/>
    </marker>
  </defs>
  <rect width="900" height="900" fill="#0a0e14"/>
  <text x="450" y="50" font-family="Consolas,monospace" font-size="15" fill="#8b949e" text-anchor="middle" letter-spacing="3">HIPÓTESE INICIAL</text>
  <line x1="340" y1="66" x2="560" y2="66" stroke="#21262d" stroke-width="1"/>

  <g font-family="Consolas,monospace">
    <rect x="340" y="100" width="220" height="64" rx="8" fill="#0d1421" stroke="#8b949e" stroke-width="1.8"/>
    <text x="450" y="139" font-size="15" fill="#e6edf3" text-anchor="middle" font-weight="700">MOBILE DEVICE</text>
    <line x1="450" y1="164" x2="450" y2="198" stroke="#4b5563" stroke-width="2" marker-end="url(#arrow02f)"/>

    <rect x="350" y="200" width="200" height="64" rx="8" fill="#0d1421" stroke="#56c2d4" stroke-width="1.8"/>
    <text x="450" y="239" font-size="15" fill="#56c2d4" text-anchor="middle" font-weight="700">DNS QUERY</text>
    <line x1="450" y1="264" x2="450" y2="298" stroke="#4b5563" stroke-width="2" marker-end="url(#arrow02f)"/>

    <rect x="310" y="300" width="280" height="64" rx="8" fill="#0d1421" stroke="#f0883e" stroke-width="1.8"/>
    <text x="450" y="339" font-size="15" fill="#f0883e" text-anchor="middle" font-weight="700">WATCHED DOMAIN</text>
    <line x1="450" y1="364" x2="450" y2="398" stroke="#4b5563" stroke-width="2" marker-end="url(#arrow02f)"/>

    <rect x="260" y="400" width="380" height="64" rx="8" fill="#1a1608" stroke="#d29922" stroke-width="1.8"/>
    <text x="450" y="432" font-size="13.5" fill="#d29922" text-anchor="middle" font-weight="700">POSSIBLE SUSPICIOUS</text>
    <text x="450" y="450" font-size="13.5" fill="#d29922" text-anchor="middle" font-weight="700">COMMUNICATION</text>
    <line x1="450" y1="464" x2="450" y2="498" stroke="#4b5563" stroke-width="2" marker-end="url(#arrow02f)"/>

    <rect x="380" y="500" width="140" height="64" rx="8" fill="#1f1212" stroke="#f85149" stroke-width="1.8" stroke-dasharray="6 4"/>
    <text x="450" y="539" font-size="17" fill="#f85149" text-anchor="middle" font-weight="700">C2?</text>
    <line x1="450" y1="564" x2="450" y2="598" stroke="#4b5563" stroke-width="2" marker-end="url(#arrow02f)"/>

    <rect x="250" y="600" width="400" height="72" rx="8" fill="#0d1421" stroke="#e6edf3" stroke-width="2.2"/>
    <text x="450" y="644" font-size="16.5" fill="#e6edf3" text-anchor="middle" font-weight="700" letter-spacing="1">REQUIRES INVESTIGATION</text>
  </g>

  <rect x="180" y="720" width="540" height="56" rx="8" fill="#0d1421" stroke="#3fb950" stroke-width="1.8"/>
  <text x="450" y="748" font-family="Consolas,monospace" font-size="15" fill="#3fb950" text-anchor="middle" font-weight="700">WATCHED DOMAIN  ≠  CONFIRMED COMPROMISE</text>

  <text x="450" y="820" font-family="Segoe UI,Arial,sans-serif" font-size="13" fill="#8b949e" text-anchor="middle">o modelo produz uma hipótese investigativa — não um veredito</text>
</svg>
