<svg viewBox="0 0 1200 700" xmlns="http://www.w3.org/2000/svg">
  <defs>
    <marker id="arrow03b" markerWidth="9" markerHeight="9" refX="4.5" refY="4.5" orient="auto">
      <path d="M0,0 L9,4.5 L0,9 Z" fill="#3fb950"/>
    </marker>
  </defs>
  <rect width="1200" height="700" fill="#0a0e14"/>
  <text x="600" y="50" font-family="Consolas,monospace" font-size="15" fill="#8b949e" text-anchor="middle" letter-spacing="3">EVIDENCE ASSESSMENT</text>
  <line x1="440" y1="66" x2="760" y2="66" stroke="#21262d" stroke-width="1"/>

  <!-- LEFT: authorized -->
  <g transform="translate(60,100)">
    <rect width="500" height="48" rx="6" fill="#0d1421" stroke="#3fb950" stroke-width="1.5"/>
    <text x="250" y="31" font-family="Consolas,monospace" font-size="15" fill="#3fb950" text-anchor="middle" font-weight="700" letter-spacing="1">SUPPORTS AUTHORIZED ACTIVITY</text>

    <rect x="60" y="90" width="380" height="60" rx="8" fill="#0d1421" stroke="#2d3748" stroke-width="1.3"/>
    <text x="250" y="113" font-family="Consolas,monospace" font-size="14" fill="#e6edf3" text-anchor="middle">consultancy identified</text>
    <text x="250" y="133" font-family="Segoe UI,Arial,sans-serif" font-size="11" fill="#6b7280" text-anchor="middle">origem associada a fornecedor contratado</text>
    <line x1="250" y1="150" x2="250" y2="185" stroke="#3fb950" stroke-width="2" marker-end="url(#arrow03b)"/>

    <rect x="60" y="195" width="380" height="60" rx="8" fill="#0d1421" stroke="#2d3748" stroke-width="1.3"/>
    <text x="250" y="218" font-family="Consolas,monospace" font-size="14" fill="#e6edf3" text-anchor="middle">authorization confirmed</text>
    <text x="250" y="238" font-family="Segoe UI,Arial,sans-serif" font-size="11" fill="#6b7280" text-anchor="middle">validação operacional com a organização</text>
    <line x1="250" y1="255" x2="250" y2="290" stroke="#3fb950" stroke-width="2" marker-end="url(#arrow03b)"/>

    <rect x="40" y="300" width="420" height="66" rx="8" fill="#0f1f14" stroke="#3fb950" stroke-width="1.8"/>
    <text x="250" y="326" font-family="Consolas,monospace" font-size="14" fill="#3fb950" text-anchor="middle" font-weight="700">authorized security activity</text>
    <text x="250" y="348" font-family="Segoe UI,Arial,sans-serif" font-size="11" fill="#8b949e" text-anchor="middle">contracted security assessment confirmed</text>
  </g>

  <!-- divider -->
  <line x1="600" y1="100" x2="600" y2="640" stroke="#21262d" stroke-width="1"/>

  <!-- RIGHT: malicious supporting evidence -->
  <g transform="translate(640,100)">
    <rect width="500" height="48" rx="6" fill="#0d1421" stroke="#4b5563" stroke-width="1.5"/>
    <text x="250" y="31" font-family="Consolas,monospace" font-size="15" fill="#c9d1d9" text-anchor="middle" font-weight="700" letter-spacing="1">MALICIOUS SUPPORTING EVIDENCE</text>

    <g font-family="Consolas,monospace" font-size="14">
      <g transform="translate(0,80)">
        <text x="0" y="20" fill="#e6edf3">WAF bypass</text>
        <rect x="330" y="0" width="150" height="28" rx="14" fill="none" stroke="#6b7280" stroke-width="1.3"/>
        <text x="405" y="19" fill="#8b949e" text-anchor="middle" font-size="11">NOT OBSERVED</text>
      </g>
      <line x1="0" y1="98" x2="500" y2="98" stroke="#1c2129" stroke-width="1"/>
      <g transform="translate(0,116)">
        <text x="0" y="20" fill="#e6edf3">unauthorized exploitation</text>
        <rect x="330" y="0" width="150" height="28" rx="14" fill="none" stroke="#6b7280" stroke-width="1.3"/>
        <text x="405" y="19" fill="#8b949e" text-anchor="middle" font-size="11">NOT OBSERVED</text>
      </g>
      <line x1="0" y1="154" x2="500" y2="154" stroke="#1c2129" stroke-width="1"/>
      <g transform="translate(0,172)">
        <text x="0" y="20" fill="#e6edf3">persistence</text>
        <rect x="330" y="0" width="150" height="28" rx="14" fill="none" stroke="#6b7280" stroke-width="1.3"/>
        <text x="405" y="19" fill="#8b949e" text-anchor="middle" font-size="11">NOT OBSERVED</text>
      </g>
      <line x1="0" y1="210" x2="500" y2="210" stroke="#1c2129" stroke-width="1"/>
      <g transform="translate(0,228)">
        <text x="0" y="20" fill="#e6edf3">command and control</text>
        <rect x="330" y="0" width="150" height="28" rx="14" fill="none" stroke="#6b7280" stroke-width="1.3"/>
        <text x="405" y="19" fill="#8b949e" text-anchor="middle" font-size="11">NOT OBSERVED</text>
      </g>
      <line x1="0" y1="266" x2="500" y2="266" stroke="#1c2129" stroke-width="1"/>
      <g transform="translate(0,284)">
        <text x="0" y="20" fill="#e6edf3">exfiltration / impact</text>
        <rect x="330" y="0" width="150" height="28" rx="14" fill="none" stroke="#6b7280" stroke-width="1.3"/>
        <text x="405" y="19" fill="#8b949e" text-anchor="middle" font-size="11">NOT OBSERVED</text>
      </g>
    </g>
  </g>

  <text x="600" y="670" font-family="Segoe UI,Arial,sans-serif" font-size="13" fill="#8b949e" text-anchor="middle">contexto operacional não invalida o evento técnico — ele altera sua interpretação</text>
</svg>
