<svg viewBox="0 0 900 1180" xmlns="http://www.w3.org/2000/svg">
  <defs>
    <marker id="arrow10" markerWidth="9" markerHeight="9" refX="4.5" refY="4.5" orient="auto">
      <path d="M0,0 L9,4.5 L0,9 Z" fill="#8b949e"/>
    </marker>
  </defs>
  <rect width="900" height="1180" fill="#0a0e14"/>
  <text x="450" y="46" font-family="Consolas,monospace" font-size="15" fill="#8b949e" text-anchor="middle" letter-spacing="3">DETECTION ENGINEERING PIPELINE</text>
  <line x1="330" y1="62" x2="570" y2="62" stroke="#21262d" stroke-width="1"/>

  <g font-family="Consolas,monospace" font-size="15" fill="#e6edf3">
    <g transform="translate(200,100)"><rect width="500" height="66" rx="8" fill="#0d1421" stroke="#58a6ff" stroke-width="1.5"/><text x="250" y="40" text-anchor="middle">Interface State Change</text></g>
    <line x1="450" y1="166" x2="450" y2="194" stroke="#8b949e" stroke-width="2" marker-end="url(#arrow10)"/>

    <g transform="translate(200,200)"><rect width="500" height="66" rx="8" fill="#0d1421" stroke="#58a6ff" stroke-width="1.5"/><text x="250" y="40" text-anchor="middle">Interface Classification</text></g>
    <line x1="450" y1="266" x2="450" y2="294" stroke="#8b949e" stroke-width="2" marker-end="url(#arrow10)"/>

    <g transform="translate(200,300)"><rect width="500" height="66" rx="8" fill="#0d1421" stroke="#bc8cff" stroke-width="1.5"/><text x="250" y="40" text-anchor="middle">Process Telemetry</text></g>
    <line x1="450" y1="366" x2="450" y2="394" stroke="#8b949e" stroke-width="2" marker-end="url(#arrow10)"/>

    <g transform="translate(200,400)"><rect width="500" height="66" rx="8" fill="#0d1421" stroke="#bc8cff" stroke-width="1.5"/><text x="250" y="40" text-anchor="middle">User / Privilege Context</text></g>
    <line x1="450" y1="466" x2="450" y2="494" stroke="#8b949e" stroke-width="2" marker-end="url(#arrow10)"/>

    <g transform="translate(200,500)"><rect width="500" height="66" rx="8" fill="#0d1421" stroke="#d29922" stroke-width="1.5"/><text x="250" y="40" text-anchor="middle">Packet Capture Tool Detection</text></g>
    <line x1="450" y1="566" x2="450" y2="594" stroke="#8b949e" stroke-width="2" marker-end="url(#arrow10)"/>

    <g transform="translate(200,600)"><rect width="500" height="66" rx="8" fill="#0d1421" stroke="#d29922" stroke-width="1.5"/><text x="250" y="40" text-anchor="middle">File Creation</text></g>
    <line x1="450" y1="666" x2="450" y2="694" stroke="#8b949e" stroke-width="2" marker-end="url(#arrow10)"/>

    <g transform="translate(200,700)"><rect width="500" height="66" rx="8" fill="#0d1421" stroke="#3fb950" stroke-width="1.5"/><text x="250" y="40" text-anchor="middle">Infrastructure Context</text></g>
    <line x1="450" y1="766" x2="450" y2="794" stroke="#8b949e" stroke-width="2" marker-end="url(#arrow10)"/>

    <g transform="translate(200,800)"><rect width="500" height="66" rx="8" fill="#161616" stroke="#e6edf3" stroke-width="1.8"/><text x="250" y="40" text-anchor="middle" font-weight="700">Risk Scoring</text></g>
  </g>

  <line x1="450" y1="866" x2="450" y2="906" stroke="#8b949e" stroke-width="2" marker-end="url(#arrow10)"/>

  <text x="450" y="945" font-family="Consolas,monospace" font-size="12" fill="#6b7280" text-anchor="middle" letter-spacing="2">CONTEXTUAL RISK SCORE</text>

  <g font-family="Consolas,monospace" font-size="14" font-weight="700">
    <rect x="130" y="965" width="190" height="60" rx="8" fill="#0f1f14" stroke="#3fb950" stroke-width="1.6"/>
    <text x="225" y="1002" fill="#3fb950" text-anchor="middle">LOW</text>

    <rect x="355" y="965" width="190" height="60" rx="8" fill="#1a1608" stroke="#d29922" stroke-width="1.6"/>
    <text x="450" y="1002" fill="#d29922" text-anchor="middle">MEDIUM</text>

    <rect x="580" y="965" width="190" height="60" rx="8" fill="#1f1212" stroke="#f85149" stroke-width="1.6"/>
    <text x="675" y="1002" fill="#f85149" text-anchor="middle">HIGH</text>
  </g>

  <text x="450" y="1075" font-family="Segoe UI,Arial,sans-serif" font-size="13" fill="#8b949e" text-anchor="middle">correlacionar sinais aumenta a fidelidade sem eliminar a visibilidade da regra original</text>
</svg>
