<svg viewBox="0 0 1200 760" xmlns="http://www.w3.org/2000/svg">
  <defs>
    <marker id="arrow03c" markerWidth="9" markerHeight="9" refX="4.5" refY="4.5" orient="auto">
      <path d="M0,0 L9,4.5 L0,9 Z" fill="#3fb950"/>
    </marker>
  </defs>
  <rect width="1200" height="760" fill="#0a0e14"/>
  <text x="600" y="46" font-family="Consolas,monospace" font-size="15" fill="#8b949e" text-anchor="middle" letter-spacing="3">EVIDENCE ASSESSMENT</text>
  <line x1="440" y1="62" x2="760" y2="62" stroke="#21262d" stroke-width="1"/>

  <!-- LEFT: confirmed -->
  <g transform="translate(60,96)">
    <rect width="480" height="44" rx="6" fill="#0d1421" stroke="#3fb950" stroke-width="1.5"/>
    <text x="240" y="28" font-family="Consolas,monospace" font-size="14" fill="#3fb950" text-anchor="middle" font-weight="700" letter-spacing="1">CONFIRMED</text>

    <rect x="60" y="80" width="360" height="52" rx="7" fill="#0d1421" stroke="#2d3748" stroke-width="1.2"/>
    <text x="240" y="111" font-family="Consolas,monospace" font-size="13" fill="#e6edf3" text-anchor="middle">Darktrace Threat Indicator</text>
    <line x1="240" y1="132" x2="240" y2="160" stroke="#3fb950" stroke-width="2" marker-end="url(#arrow03c)"/>

    <rect x="60" y="168" width="360" height="52" rx="7" fill="#0d1421" stroke="#2d3748" stroke-width="1.2"/>
    <text x="240" y="199" font-family="Consolas,monospace" font-size="13" fill="#e6edf3" text-anchor="middle">Suspicious Domain Activity</text>
    <line x1="240" y1="220" x2="240" y2="248" stroke="#3fb950" stroke-width="2" marker-end="url(#arrow03c)"/>

    <rect x="60" y="256" width="360" height="52" rx="7" fill="#0d1421" stroke="#2d3748" stroke-width="1.2"/>
    <text x="240" y="287" font-family="Consolas,monospace" font-size="13" fill="#e6edf3" text-anchor="middle">Quarantine Device</text>
    <line x1="240" y1="308" x2="240" y2="336" stroke="#3fb950" stroke-width="2" marker-end="url(#arrow03c)"/>

    <rect x="40" y="344" width="400" height="60" rx="7" fill="#0f1f14" stroke="#3fb950" stroke-width="1.6"/>
    <text x="240" y="380" font-family="Consolas,monospace" font-size="14" fill="#3fb950" text-anchor="middle" font-weight="700">Antigena Context</text>

    <text x="240" y="450" font-family="Segoe UI,Arial,sans-serif" font-size="12.5" fill="#8b949e" text-anchor="middle">controle defensivo atuou —</text>
    <text x="240" y="470" font-family="Segoe UI,Arial,sans-serif" font-size="12.5" fill="#8b949e" text-anchor="middle">isso é fato, não é veredito</text>
  </g>

  <line x1="600" y1="96" x2="600" y2="690" stroke="#21262d" stroke-width="1"/>

  <!-- RIGHT: not confirmed / not available -->
  <g transform="translate(640,96)">
    <rect width="500" height="44" rx="6" fill="#0d1421" stroke="#4b5563" stroke-width="1.5"/>
    <text x="250" y="28" font-family="Consolas,monospace" font-size="14" fill="#c9d1d9" text-anchor="middle" font-weight="700" letter-spacing="1">NOT CONFIRMED / NOT AVAILABLE</text>

    <g font-family="Consolas,monospace" font-size="13" fill="#e6edf3">
      <g transform="translate(0,68)"><text x="0" y="18" fill="#e6edf3">Malware</text><rect x="330" y="-2" width="150" height="26" rx="13" fill="none" stroke="#6b7280" stroke-width="1.2"/><text x="405" y="16" fill="#8b949e" text-anchor="middle" font-size="10.5">NOT CONFIRMED</text></g>
      <line x1="0" y1="82" x2="500" y2="82" stroke="#1c2129"/>
      <g transform="translate(0,98)"><text x="0" y="18" fill="#e6edf3">Malicious Process</text><rect x="330" y="-2" width="150" height="26" rx="13" fill="none" stroke="#6b7280" stroke-width="1.2"/><text x="405" y="16" fill="#8b949e" text-anchor="middle" font-size="10.5">NOT AVAILABLE</text></g>
      <line x1="0" y1="112" x2="500" y2="112" stroke="#1c2129"/>
      <g transform="translate(0,128)"><text x="0" y="18" fill="#e6edf3">Initial Access</text><rect x="330" y="-2" width="150" height="26" rx="13" fill="none" stroke="#6b7280" stroke-width="1.2"/><text x="405" y="16" fill="#8b949e" text-anchor="middle" font-size="10.5">NOT AVAILABLE</text></g>
      <line x1="0" y1="142" x2="500" y2="142" stroke="#1c2129"/>
      <g transform="translate(0,158)"><text x="0" y="18" fill="#e6edf3">Persistence</text><rect x="330" y="-2" width="150" height="26" rx="13" fill="none" stroke="#6b7280" stroke-width="1.2"/><text x="405" y="16" fill="#8b949e" text-anchor="middle" font-size="10.5">NOT AVAILABLE</text></g>
      <line x1="0" y1="172" x2="500" y2="172" stroke="#1c2129"/>
      <g transform="translate(0,188)"><text x="0" y="18" fill="#e6edf3">Credential Access</text><rect x="330" y="-2" width="150" height="26" rx="13" fill="none" stroke="#6b7280" stroke-width="1.2"/><text x="405" y="16" fill="#8b949e" text-anchor="middle" font-size="10.5">NOT AVAILABLE</text></g>
      <line x1="0" y1="202" x2="500" y2="202" stroke="#1c2129"/>
      <g transform="translate(0,218)"><text x="0" y="18" fill="#e6edf3">Command and Control</text><rect x="330" y="-2" width="150" height="26" rx="13" fill="none" stroke="#6b7280" stroke-width="1.2"/><text x="405" y="16" fill="#8b949e" text-anchor="middle" font-size="10.5">NOT CONFIRMED</text></g>
      <line x1="0" y1="232" x2="500" y2="232" stroke="#1c2129"/>
      <g transform="translate(0,248)"><text x="0" y="18" fill="#e6edf3">Exfiltration</text><rect x="330" y="-2" width="150" height="26" rx="13" fill="none" stroke="#6b7280" stroke-width="1.2"/><text x="405" y="16" fill="#8b949e" text-anchor="middle" font-size="10.5">NOT AVAILABLE</text></g>
      <line x1="0" y1="262" x2="500" y2="262" stroke="#1c2129"/>
      <g transform="translate(0,278)"><text x="0" y="18" fill="#e6edf3">Root Cause</text><rect x="330" y="-2" width="150" height="26" rx="13" fill="none" stroke="#6b7280" stroke-width="1.2"/><text x="405" y="16" fill="#8b949e" text-anchor="middle" font-size="10.5">NOT AVAILABLE</text></g>
      <line x1="0" y1="292" x2="500" y2="292" stroke="#1c2129"/>
      <g transform="translate(0,308)"><rect x="-10" y="-6" width="520" height="34" rx="8" fill="#1f1212" stroke="#f85149" stroke-width="1.3"/><text x="0" y="18" fill="#f85149" font-weight="700">Device Compromise</text><rect x="330" y="-2" width="150" height="26" rx="13" fill="none" stroke="#f85149" stroke-width="1.4"/><text x="405" y="16" fill="#f85149" text-anchor="middle" font-size="10.5" font-weight="700">NOT CONFIRMED</text></g>
    </g>
  </g>

  <text x="600" y="720" font-family="Segoe UI,Arial,sans-serif" font-size="14" fill="#e6edf3" text-anchor="middle" font-weight="600">CONTAINMENT CONFIRMED  ≠  COMPROMISE CONFIRMED</text>
</svg>
