<svg viewBox="0 0 1200 620" xmlns="http://www.w3.org/2000/svg">
  <rect width="1200" height="620" fill="#0a0e14"/>
  <text x="600" y="46" font-family="Consolas,monospace" font-size="15" fill="#8b949e" text-anchor="middle" letter-spacing="3">CONTAINMENT ≠ VERDICT</text>
  <line x1="470" y1="62" x2="730" y2="62" stroke="#21262d" stroke-width="1"/>

  <rect x="420" y="90" width="360" height="64" rx="10" fill="#1a1608" stroke="#d29922" stroke-width="2"/>
  <text x="600" y="122" font-family="Consolas,monospace" font-size="19" fill="#d29922" text-anchor="middle" font-weight="700">QUARANTINE DEVICE</text>
  <text x="600" y="142" font-family="Segoe UI,Arial,sans-serif" font-size="11" fill="#e3c37a" text-anchor="middle">ação de contenção registrada</text>

  <line x1="480" y1="154" x2="290" y2="205" stroke="#4b5563" stroke-width="1.6"/>
  <line x1="720" y1="154" x2="910" y2="205" stroke="#4b5563" stroke-width="1.6"/>

  <rect x="60" y="205" width="460" height="46" rx="8" fill="#0f1f14" stroke="#3fb950" stroke-width="1.8"/>
  <text x="290" y="234" font-family="Consolas,monospace" font-size="15" fill="#3fb950" text-anchor="middle" font-weight="700" letter-spacing="1">WHAT IT CONFIRMS</text>

  <rect x="680" y="205" width="460" height="46" rx="8" fill="#1f1212" stroke="#f85149" stroke-width="1.8"/>
  <text x="910" y="234" font-family="Consolas,monospace" font-size="15" fill="#f85149" text-anchor="middle" font-weight="700" letter-spacing="1">WHAT IT DOES NOT CONFIRM</text>

  <g font-family="Consolas,monospace" font-size="14" fill="#e6edf3">
    <g transform="translate(60,268)"><rect width="460" height="52" rx="7" fill="#0d1421" stroke="#2d3748"/><text x="24" y="32">Defensive action</text></g>
    <g transform="translate(60,334)"><rect width="460" height="52" rx="7" fill="#0d1421" stroke="#2d3748"/><text x="24" y="32">Containment</text></g>
    <g transform="translate(60,400)"><rect width="460" height="52" rx="7" fill="#0f1f14" stroke="#3fb950" stroke-width="1.4"/><text x="24" y="32" fill="#3fb950">Restriction applied</text></g>
  </g>

  <g font-family="Consolas,monospace" font-size="14" fill="#e6edf3">
    <g transform="translate(680,268)"><rect width="460" height="52" rx="7" fill="#0d1421" stroke="#2d3748"/><text x="24" y="32">Malware</text></g>
    <g transform="translate(680,334)"><rect width="460" height="52" rx="7" fill="#0d1421" stroke="#2d3748"/><text x="24" y="32">Root cause</text></g>
    <g transform="translate(680,400)"><rect width="460" height="52" rx="7" fill="#0d1421" stroke="#2d3748"/><text x="24" y="32">Compromise</text></g>
    <g transform="translate(680,466)"><rect width="460" height="52" rx="7" fill="#0d1421" stroke="#2d3748"/><text x="24" y="32">Attack chain</text></g>
  </g>
  <g transform="translate(680,532)"><rect width="460" height="42" rx="7" fill="#1f1212" stroke="#f85149" stroke-width="1.4"/><text x="24" y="27" font-family="Consolas,monospace" font-size="14" fill="#f85149">Impact</text></g>

  <text x="290" y="540" font-family="Segoe UI,Arial,sans-serif" font-size="12" fill="#6b7280" text-anchor="middle"> </text>
  <text x="600" y="600" font-family="Segoe UI,Arial,sans-serif" font-size="14" fill="#e6edf3" text-anchor="middle" font-weight="600">CONTAINMENT IS AN ACTION — VERDICT REQUIRES EVIDENCE</text>
</svg>
