<svg viewBox="0 0 1100 700" xmlns="http://www.w3.org/2000/svg">
  <defs>
    <marker id="arrow06h" markerWidth="9" markerHeight="9" refX="4.5" refY="4.5" orient="auto">
      <path d="M0,0 L9,4.5 L0,9 Z" fill="#4b5563"/>
    </marker>
  </defs>
  <rect width="1100" height="700" fill="#0a0e14"/>
  <text x="550" y="46" font-family="Consolas,monospace" font-size="15" fill="#8b949e" text-anchor="middle" letter-spacing="3">BODY AND LINK ANALYSIS</text>
  <line x1="440" y1="62" x2="660" y2="62" stroke="#21262d" stroke-width="1"/>

  <rect x="440" y="86" width="220" height="46" rx="8" fill="#0d1421" stroke="#e6edf3" stroke-width="1.8"/>
  <text x="550" y="114" font-family="Consolas,monospace" font-size="13" fill="#e6edf3" text-anchor="middle" font-weight="700">EMAIL BODY (HTML)</text>
  <line x1="550" y1="132" x2="550" y2="158" stroke="#4b5563" stroke-width="1.8" marker-end="url(#arrow06h)"/>

  <g font-family="Consolas,monospace" font-size="12" fill="#e6edf3">
    <rect x="90" y="160" width="200" height="46" rx="18" fill="#0d1421" stroke="#58a6ff" stroke-width="1.4"/>
    <text x="190" y="188" text-anchor="middle">Marketing Content</text>
    <rect x="310" y="160" width="180" height="46" rx="18" fill="#0d1421" stroke="#58a6ff" stroke-width="1.4"/>
    <text x="400" y="188" text-anchor="middle">Promotional CTA</text>
    <rect x="510" y="160" width="180" height="46" rx="18" fill="#0d1421" stroke="#58a6ff" stroke-width="1.4"/>
    <text x="600" y="188" text-anchor="middle">Tracking Links</text>
    <rect x="710" y="160" width="180" height="46" rx="18" fill="#0d1421" stroke="#58a6ff" stroke-width="1.4"/>
    <text x="800" y="188" text-anchor="middle">Remote Images</text>
    <rect x="910" y="160" width="150" height="46" rx="18" fill="#0d1421" stroke="#58a6ff" stroke-width="1.4"/>
    <text x="985" y="188" text-anchor="middle">Unsubscribe</text>
  </g>

  <line x1="190" y1="206" x2="550" y2="252" stroke="#2d3748" stroke-width="1"/>
  <line x1="400" y1="206" x2="550" y2="252" stroke="#2d3748" stroke-width="1"/>
  <line x1="600" y1="206" x2="550" y2="252" stroke="#2d3748" stroke-width="1"/>
  <line x1="800" y1="206" x2="550" y2="252" stroke="#2d3748" stroke-width="1"/>
  <line x1="985" y1="206" x2="550" y2="252" stroke="#2d3748" stroke-width="1"/>
  <line x1="550" y1="252" x2="550" y2="278" stroke="#4b5563" stroke-width="1.8" marker-end="url(#arrow06h)"/>

  <g font-family="Consolas,monospace" font-size="13" fill="#e6edf3">
    <rect x="150" y="280" width="800" height="52" rx="8" fill="#15161a" stroke="#8b949e" stroke-width="1.6" stroke-dasharray="4 3"/>
    <text x="550" y="311" text-anchor="middle" fill="#8b949e" font-weight="700">NO CREDENTIAL REQUEST OBSERVED</text>

    <rect x="150" y="342" width="800" height="52" rx="8" fill="#15161a" stroke="#8b949e" stroke-width="1.6" stroke-dasharray="4 3"/>
    <text x="550" y="373" text-anchor="middle" fill="#8b949e" font-weight="700">NO MALICIOUS ATTACHMENT OBSERVED</text>

    <rect x="150" y="404" width="800" height="52" rx="8" fill="#15161a" stroke="#8b949e" stroke-width="1.6" stroke-dasharray="4 3"/>
    <text x="550" y="435" text-anchor="middle" fill="#8b949e" font-weight="700">NO FINANCIAL FRAUD REQUEST OBSERVED</text>
  </g>

  <rect x="140" y="510" width="820" height="72" rx="10" fill="#0d1421" stroke="#3fb950" stroke-width="1.8"/>
  <text x="550" y="544" font-family="Consolas,monospace" font-size="14.5" fill="#e6edf3" text-anchor="middle" font-weight="700">MARKETING CHARACTERISTICS</text>
  <text x="550" y="566" font-family="Consolas,monospace" font-size="14.5" fill="#3fb950" text-anchor="middle" font-weight="700">≠  PHISHING CHARACTERISTICS</text>

  <text x="550" y="636" font-family="Segoe UI,Arial,sans-serif" font-size="12.5" fill="#8b949e" text-anchor="middle">HTML body consistente com o .eml e os metadados da mensagem</text>
  <text x="550" y="658" font-family="Consolas,monospace" font-size="11.5" fill="#6b7280" text-anchor="middle">Relevant discrepancies = NOT OBSERVED</text>
</svg>
